<svg xmlns="http://www.w3.org/2000/svg" xmlns:xlink="http://www.w3.org/1999/xlink" version="1.1" viewBox="0 0 1080 1080" class="icon-tree">
  <g transform="matrix(1 0 0 1 540 540)" id="737c7bd1-f7fd-4b02-b00a-9e2e10e982b3"></g>
  <!-- Eliminé el rect con fondo blanco -->
  <g transform="matrix(1 0 0 1 540 540)">
    <path vector-effect="non-scaling-stroke" transform=" translate(-480, 480)" d="M 200 -80 L 200 -160 L 440 -160 L 440 -320 L 360 -320 Q 277 -320 218.5 -378.5 Q 160 -437 160 -520 Q 160 -580 193 -630.5 Q 226 -681 282 -704 Q 291 -779 347.5 -829.5 Q 404 -880 480 -880 Q 556 -880 612.5 -829.5 Q 669 -779 678 -704 Q 734 -681 767 -630.5 Q 800 -580 800 -520 Q 800 -437 741.5 -378.5 Q 683 -320 600 -320 L 520 -320 L 520 -160 L 760 -160 L 760 -80 L 200 -80 Z M 360 -400 L 600 -400 Q 650 -400 685 -435 Q 720 -470 720 -520 Q 720 -556 699.5 -586 Q 679 -616 646 -630 L 604 -648 L 598 -694 Q 592 -739 558.5 -769.5 Q 525 -800 480 -800 Q 435 -800 401.5 -769.5 Q 368 -739 362 -694 L 356 -648 L 314 -630 Q 281 -616 260.5 -586 Q 240 -556 240 -520 Q 240 -470 275 -435 Q 310 -400 360 -400 Z M 480 -600 Z" stroke-linecap="round" />
  </g>
  <g transform="matrix(4.67 0 0 4.67 540 345.2)" id="3dd9e7cf-d56e-4347-809a-8e3cbf95298a">
    <circle vector-effect="non-scaling-stroke" cx="0" cy="0" r="35" />
  </g>
  <g transform="matrix(4.67 0 0 4.67 652.65 493.95)" id="3dd9e7cf-d56e-4347-809a-8e3cbf95298a">
    <circle vector-effect="non-scaling-stroke" cx="0" cy="0" r="35" />
  </g>
  <g transform="matrix(4.67 0 0 4.67 451.65 501.17)" id="3dd9e7cf-d56e-4347-809a-8e3cbf95298a">
    <circle vector-effect="non-scaling-stroke" cx="0" cy="0" r="35" />
  </g>
</svg>

